<svg xmlns="http://www.w3.org/2000/svg" xmlns:xlink="http://www.w3.org/1999/xlink" width="494" height="138" viewBox="0 0 494 138">
  <metadata><?xpacket begin="﻿" id="W5M0MpCehiHzreSzNTczkc9d"?>
<x:xmpmeta xmlns:x="adobe:ns:meta/" x:xmptk="Adobe XMP Core 5.6-c138 79.159824, 2016/09/14-01:09:01        ">
   <rdf:RDF xmlns:rdf="http://www.w3.org/1999/02/22-rdf-syntax-ns#">
      <rdf:Description rdf:about=""/>
   </rdf:RDF>
</x:xmpmeta>
                                                                                                    
                                                                                                    
                                                                                                    
                                                                                                    
                                                                                                    
                                                                                                    
                                                                                                    
                                                                                                    
                                                                                                    
                                                                                                    
                                                                                                    
                                                                                                    
                                                                                                    
                                                                                                    
                                                                                                    
                                                                                                    
                                                                                                    
                                                                                                    
                                                                                                    
                                                                                                    
                           
<?xpacket end="w"?></metadata>
<defs>
    <style>
      .cls-1 {
        fill: #fff;
        fill-rule: evenodd;
        filter: url(#filter);
      }
    </style>
    <filter id="filter" x="266" y="646" width="494" height="138" filterUnits="userSpaceOnUse">
      <feOffset result="offset" dx="-0.866" dy="0.5" in="SourceAlpha"/>
      <feGaussianBlur result="blur" stdDeviation="2"/>
      <feFlood result="flood" flood-color="#171717" flood-opacity="0.5"/>
      <feComposite result="composite" operator="in" in2="blur"/>
      <feBlend result="blend" in="SourceGraphic"/>
    </filter>
  </defs>
  <path id="Accelerated_engine" data-name="Accelerated engine" class="cls-1" d="M300.419,649.311H287.764l-17.3,46.617h11.389l3.375-10.125H302.95l3.375,10.125h11.6Zm-12.866,28.476,5.273-15.82a23.024,23.024,0,0,0,1.054-4.219h0.211q0.42,1.9,1.055,4.008l5.906,16.031h-13.5Zm54.838-29.109q-21.513,1.266-22.568,24.047,1.053,22.78,22.568,23.836,16.659,0,20.248-15.609l-10.124-3.165q-1.478,10.125-10.124,10.336-10.757-1.053-11.389-15.4,0.633-14.342,11.389-14.977,7.593,0.426,9.7,7.594l10.124-2.32q-4.641-13.71-19.826-14.344h0Zm46.191,0q-21.513,1.266-22.568,24.047,1.053,22.78,22.568,23.836,16.659,0,20.248-15.609l-10.124-3.165q-1.478,10.125-10.124,10.336-10.756-1.053-11.389-15.4,0.631-14.342,11.389-14.977,7.593,0.426,9.7,7.594l10.124-2.32q-4.641-13.71-19.826-14.344h0Zm62.01,39.024H424.649V676.733h23.623v-8.649H424.649V657.959h25.31v-8.648H414.1v46.617h36.489V687.7Zm39.652,0H466.41V649.311H455.865v46.617h34.379V687.7Zm41.972,0H506.274V676.733H529.9v-8.649H506.274V657.959h25.31v-8.648H495.728v46.617h36.488V687.7Zm32.9-10.547q11.6-2.319,11.389-13.922-0.633-13.5-17.717-13.922h-21.3v46.617h10.546V677.787h6.117l11.389,17.93h13.288Zm0.21-13.289q0.209,6.12-8.225,6.117h-9.07V657.537h9.07q8.646-.207,8.225,6.329h0Zm43.238-14.555H595.913l-17.295,46.617h11.39l3.374-10.125H611.1l3.375,10.125h11.6ZM595.7,677.787l5.273-15.82a23.039,23.039,0,0,0,1.055-4.219h0.211q0.42,1.9,1.054,4.008l5.906,16.031H595.7Zm73.4-28.476H628.184v8.648H643.37v37.969h10.756V657.959H669.1v-8.648ZM711.074,687.7H685.131V676.733h23.623v-8.649H685.131V657.959h25.31v-8.648H674.585v46.617h36.489V687.7Zm45.347-15.4Q756,649.523,730.9,649.311H716.347v46.617h15.186q25.73,0.84,24.888-23.625h0Zm-11.178,0q0.207,15.614-14.554,15.4H727.1V657.959h3.585q14.128,0.213,14.554,14.344h0ZM552.254,769.7H526.311V758.726h23.622v-8.648H526.311V739.953h25.31v-8.648H515.765v46.617h36.489V769.7Zm46.612-38.39h-9.913V757.25q0,4.854.211,7.172v0.211a19.566,19.566,0,0,0-2.531-4.641l-17.717-28.687h-11.39v46.617h9.914V752.4q0-4.85-.211-8.015,0.631,1.264,2.531,4.429l18.349,29.11h10.757V731.305Zm27.63-.633q-21.093,1.266-22.357,23.836,0.84,23.207,22.99,24.047,16.452,0,21.3-10.125v-17.3H625.02v8.437h13.709v5.7q-3.164,4.854-11.178,4.851-11.816-1.053-12.233-15.4,0.84-13.923,11.389-14.977,8.226,0,11.6,6.328l9.7-3.586q-5.487-11.811-21.514-11.812h0Zm38.176,0.633H653.915v46.617h10.757V731.305Zm48.089,0h-9.913V757.25q0,4.854.211,7.172v0.211a19.53,19.53,0,0,0-2.531-4.641l-17.717-28.687H671.422v46.617h9.913V752.4q0-4.85-.211-8.015,0.633,1.264,2.531,4.429l18.35,29.11h10.756V731.305Zm43.66,38.39H730.478V758.726H754.1v-8.648H730.478V739.953h25.31v-8.648H719.932v46.617h36.489V769.7Z" transform="translate(-266 -646)"/>
</svg>
