<svg xmlns="http://www.w3.org/2000/svg" viewBox="0 0 388.04 99.71"><defs><style>.cls-1{fill:#d21528;}.cls-2{fill:#e1e1e1;}.cls-3{fill:#454545;}</style></defs><title>EIP</title><g id="图层_2" data-name="图层 2"><g id="图层_1-2" data-name="图层 1"><path id="EIP" class="cls-1" d="M0,0V71.33H55.28v-10H12.16V39.76H51v-10H12.16V10H53.52V0ZM66.71,0V71.33H78.87V0ZM93.42,0V71.33h12.16V44H124c18.09,0,27.13-7.39,27.13-22.08S142.06,0,124.18,0Zm12.16,10h17.67c5.3,0,9.24.9,11.74,2.8s3.84,4.79,3.84,9.09-1.24,7.39-3.74,9.29S128.65,34,123.25,34H105.58Z"/><path id="Enterprise_Information_Portal_for_the_Hing_Kei_Metal_Group" data-name="Enterprise Information Portal for the Hing Kei Metal Group" class="cls-2" d="M0,86.74v10H7.42v-1.3H1.53V92.25H6.85V91H1.53V88H7.18v-1.3H0ZM12.5,89.3a2.54,2.54,0,0,0-1.22.28,2.79,2.79,0,0,0-1,.81v-.9H8.83v7.23h1.49V92.37a2.13,2.13,0,0,1,.6-1.38A1.52,1.52,0,0,1,12,90.54a1.57,1.57,0,0,1,1.69,1.85v4.34H15.2V92.27C15.2,90.28,14.29,89.3,12.5,89.3Zm6.6-2.14-1.49.61V89.5H16.27v1.23h1.34v4.2A1.88,1.88,0,0,0,18,96.24a1.73,1.73,0,0,0,1.36.49h1.19V95.5h-1a.54.54,0,0,1-.39-.14.66.66,0,0,1-.12-.43v-4.2h1.65V89.5H19.1ZM25,89.3a3.13,3.13,0,0,0-2.53,1.11,3.92,3.92,0,0,0-.95,2.7,3.86,3.86,0,0,0,1,2.83,3.31,3.31,0,0,0,2.53,1,3.51,3.51,0,0,0,2.39-.83,3.24,3.24,0,0,0,1-1.69H27a2.47,2.47,0,0,1-.65.94,2.1,2.1,0,0,1-1.26.36,1.81,1.81,0,0,1-1.39-.56,2.65,2.65,0,0,1-.57-1.62h5.48a4.91,4.91,0,0,0-.86-3A3.2,3.2,0,0,0,25,89.3Zm.05,1.22a1.83,1.83,0,0,1,2,1.89H23.11a2.47,2.47,0,0,1,.61-1.4A1.77,1.77,0,0,1,25.05,90.52Zm8.14-1.22a1.76,1.76,0,0,0-1.17.41,2.13,2.13,0,0,0-.7.88V89.5H29.83v7.23h1.49V92.9a2.12,2.12,0,0,1,.56-1.54,1.63,1.63,0,0,1,1.2-.55,3.5,3.5,0,0,1,1.05.15V89.48A2.1,2.1,0,0,0,33.19,89.3Zm5.48,0a2.57,2.57,0,0,0-2.24,1.06V89.5H35v10h1.49V95.67a2.59,2.59,0,0,0,2.21,1.26,3,3,0,0,0,2.45-1.13,4.74,4.74,0,0,0,0-5.36A3,3,0,0,0,38.67,89.3Zm-.23,1.2a1.78,1.78,0,0,1,1.61.78,3.48,3.48,0,0,1,.44,1.86A3.21,3.21,0,0,1,40,95a1.86,1.86,0,0,1-1.61.71,1.6,1.6,0,0,1-1.34-.66,2.87,2.87,0,0,1-.58-1.87v-.13A3.1,3.1,0,0,1,37,91.27a1.69,1.69,0,0,1,1.49-.77Zm8.33-1.2a1.76,1.76,0,0,0-1.17.41,2.13,2.13,0,0,0-.7.88V89.5H43.41v7.23H44.9V92.9a2.12,2.12,0,0,1,.56-1.54,1.63,1.63,0,0,1,1.2-.55,3.5,3.5,0,0,1,1.05.15V89.48A2.1,2.1,0,0,0,46.77,89.3Zm2.9-2.7a1,1,0,0,0-.73.28,1,1,0,0,0-.29.71,1,1,0,0,0,.29.73,1,1,0,0,0,.73.28,1.06,1.06,0,0,0,.73-.28,1,1,0,0,0,.31-.73.92.92,0,0,0-.3-.71,1,1,0,0,0-.74-.28Zm-.74,2.9v7.23h1.48V89.5Zm6.19-.2a3.67,3.67,0,0,0-2.13.56,1.73,1.73,0,0,0-.81,1.54A1.64,1.64,0,0,0,53,92.85a5.73,5.73,0,0,0,1.79.63,8.29,8.29,0,0,1,1.46.42.93.93,0,0,1,.64.83c0,.64-.59,1-1.74,1a2,2,0,0,1-1.2-.28,1.61,1.61,0,0,1-.52-1H52c.17,1.68,1.24,2.53,3.23,2.53,2.14,0,3.22-.77,3.22-2.3a1.72,1.72,0,0,0-.87-1.51,6.14,6.14,0,0,0-1.84-.69A10.72,10.72,0,0,1,54.28,92a.79.79,0,0,1-.59-.64.68.68,0,0,1,.39-.64,1.94,1.94,0,0,1,1-.2,2.13,2.13,0,0,1,1.15.25,1.38,1.38,0,0,1,.52.81H58.2C58,90.06,57,89.3,55.12,89.3Zm7.64,0a3.12,3.12,0,0,0-2.53,1.11,4.37,4.37,0,0,0,.05,5.52,3.33,3.33,0,0,0,2.54,1,3.53,3.53,0,0,0,2.39-.83,3.24,3.24,0,0,0,1-1.69H64.72a2.37,2.37,0,0,1-.66.94,2.06,2.06,0,0,1-1.26.36,1.78,1.78,0,0,1-1.38-.56,2.71,2.71,0,0,1-.58-1.62h5.49a4.91,4.91,0,0,0-.87-3,3.17,3.17,0,0,0-2.7-1.2Zm0,1.22a1.84,1.84,0,0,1,2,1.69,1.87,1.87,0,0,1,0,.2H60.87a2.4,2.4,0,0,1,.6-1.4,1.78,1.78,0,0,1,1.33-.49Zm9.62-3.78v10h1.51v-10Zm7,2.56a2.51,2.51,0,0,0-1.22.28,2.82,2.82,0,0,0-1,.81v-.9H75.78v7.23h1.48V92.37A2.19,2.19,0,0,1,77.87,91a1.48,1.48,0,0,1,1.1-.45,1.58,1.58,0,0,1,1.7,1.85v4.34h1.48V92.27c0-2-.91-3-2.7-3Zm7.25-2.56a1.88,1.88,0,0,0-1.46.53,2,2,0,0,0-.5,1.44v.78H83.07v1.22h1.67v6h1.47v-6h1.9V89.5h-1.9v-.74a.81.81,0,0,1,.17-.57.67.67,0,0,1,.53-.18h1.3V86.74H86.7Zm5.75,2.56a3.39,3.39,0,0,0-2.63,1.09,4.26,4.26,0,0,0,0,5.43,3.72,3.72,0,0,0,5.26,0l0,0a3.86,3.86,0,0,0,1-2.7,3.94,3.94,0,0,0-1-2.73,3.39,3.39,0,0,0-2.64-1.09Zm0,1.22a1.86,1.86,0,0,1,1.61.81,3.37,3.37,0,0,1,0,3.57,1.89,1.89,0,0,1-1.61.81,1.86,1.86,0,0,1-1.59-.81,2.9,2.9,0,0,1-.49-1.78,3,3,0,0,1,.49-1.79,1.82,1.82,0,0,1,1.59-.81Zm8.39-1.22a1.78,1.78,0,0,0-1.18.41,2.21,2.21,0,0,0-.7.88V89.5H97.48v7.23H99V92.9a2.16,2.16,0,0,1,.56-1.54,1.65,1.65,0,0,1,1.21-.55,3.59,3.59,0,0,1,1.05.15V89.48a2.13,2.13,0,0,0-.94-.18Zm5.32,0a2.6,2.6,0,0,0-2,1v-.8h-1.48v7.23h1.48V92.38a1.87,1.87,0,0,1,.45-1.29,1.38,1.38,0,0,1,1.15-.55c1,0,1.48.56,1.48,1.71v4.48h1.49V92.28a1.83,1.83,0,0,1,.42-1.27,1.32,1.32,0,0,1,1-.46,1.59,1.59,0,0,1,1.23.41,1.8,1.8,0,0,1,.38,1.29v4.49h1.49V92a2.7,2.7,0,0,0-.73-1.95,2.47,2.47,0,0,0-1.85-.74,2.52,2.52,0,0,0-1.23.27,2.9,2.9,0,0,0-1,1,2.4,2.4,0,0,0-2.28-1.21Zm12.07,0a4,4,0,0,0-2.16.49,2.47,2.47,0,0,0-1.16,1.73l1.47.13a1.26,1.26,0,0,1,.63-.89,2.18,2.18,0,0,1,1.12-.25A1.4,1.4,0,0,1,119.77,92v.29l-1.63,0a4.48,4.48,0,0,0-2.49.66,2.13,2.13,0,0,0-1,1.87,1.8,1.8,0,0,0,.68,1.47,2.56,2.56,0,0,0,1.77.57,3.93,3.93,0,0,0,1.68-.35,3,3,0,0,0,1.05-.87v1h1.37V92.11a2.86,2.86,0,0,0-.66-2,3.1,3.1,0,0,0-2.35-.8Zm1.54,4.08v.42a1.79,1.79,0,0,1-.69,1.41,2.42,2.42,0,0,1-1.61.57,1.42,1.42,0,0,1-.91-.28.81.81,0,0,1-.35-.69c0-.89.67-1.37,2-1.4Zm5.36-6.23-1.49.61V89.5H122.3v1.23h1.34v4.2a1.88,1.88,0,0,0,.41,1.32,1.73,1.73,0,0,0,1.36.49h1.19V95.5h-.95a.52.52,0,0,1-.39-.14.61.61,0,0,1-.13-.43v-4.2h1.65V89.5h-1.65ZM129,86.6a1,1,0,0,0-.73.28,1,1,0,0,0-.29.71,1,1,0,0,0,.29.73,1,1,0,0,0,.73.28,1.06,1.06,0,0,0,.73-.28,1,1,0,0,0,.31-.73.92.92,0,0,0-.3-.71,1,1,0,0,0-.74-.28Zm-.74,2.9v7.23h1.48V89.5Zm6.82-.2a3.39,3.39,0,0,0-2.64,1.09,4.26,4.26,0,0,0,0,5.43,3.72,3.72,0,0,0,5.26,0l0,0a3.82,3.82,0,0,0,1-2.7,3.94,3.94,0,0,0-1-2.73,3.38,3.38,0,0,0-2.63-1.09Zm0,1.22a1.87,1.87,0,0,1,1.61.81,3.43,3.43,0,0,1,0,3.57,1.9,1.9,0,0,1-1.61.81,1.86,1.86,0,0,1-1.6-.81,2.9,2.9,0,0,1-.49-1.78,3,3,0,0,1,.49-1.79,1.83,1.83,0,0,1,1.6-.81Zm8.69-1.22a2.54,2.54,0,0,0-1.22.28,2.79,2.79,0,0,0-1,.81v-.9h-1.49v7.23h1.49V92.37a2.13,2.13,0,0,1,.6-1.38,1.5,1.5,0,0,1,1.1-.45,1.58,1.58,0,0,1,1.7,1.85v4.34h1.48V92.27c0-2-.91-3-2.7-3Zm9.2-2.56v10h1.52V92.84h2.59q3.6,0,3.6-3.06c0-2-1.19-3-3.57-3H153Zm1.52,1.3H157a2.59,2.59,0,0,1,1.63.42,1.53,1.53,0,0,1,.54,1.32,1.68,1.68,0,0,1-.52,1.34,2.63,2.63,0,0,1-1.65.42h-2.5V88Zm10.8,1.26a3.37,3.37,0,0,0-2.63,1.09,4.28,4.28,0,0,0,0,5.43,3.72,3.72,0,0,0,5.26,0l0,0a3.82,3.82,0,0,0,1-2.7,3.94,3.94,0,0,0-1-2.73,3.39,3.39,0,0,0-2.63-1.09Zm0,1.22a1.87,1.87,0,0,1,1.61.81,3.43,3.43,0,0,1,0,3.57,1.9,1.9,0,0,1-1.61.81,1.86,1.86,0,0,1-1.6-.81,3,3,0,0,1-.49-1.78,3,3,0,0,1,.49-1.79,1.83,1.83,0,0,1,1.6-.81Zm8.38-1.22a1.76,1.76,0,0,0-1.17.41,2.13,2.13,0,0,0-.7.88V89.5h-1.49v7.23h1.49V92.9a2.12,2.12,0,0,1,.56-1.54,1.63,1.63,0,0,1,1.2-.55,3.5,3.5,0,0,1,1.05.15V89.48a2.1,2.1,0,0,0-.94-.18Zm4.05-2.14-1.48.61V89.5h-1.35v1.23h1.35v4.2a1.87,1.87,0,0,0,.4,1.32,1.73,1.73,0,0,0,1.36.49h1.19V95.5h-.95a.52.52,0,0,1-.39-.14.61.61,0,0,1-.13-.43v-4.2h1.65V89.5h-1.65Zm6.1,2.14a4,4,0,0,0-2.15.49,2.44,2.44,0,0,0-1.16,1.73l1.47.13a1.26,1.26,0,0,1,.63-.89,2.16,2.16,0,0,1,1.12-.25A1.39,1.39,0,0,1,185.38,92v.29l-1.62,0a4.48,4.48,0,0,0-2.49.66,2.12,2.12,0,0,0-1,1.87,1.81,1.81,0,0,0,.69,1.47,2.55,2.55,0,0,0,1.76.57,3.87,3.87,0,0,0,1.68-.35,3,3,0,0,0,1.05-.87v1h1.37V92.11a2.85,2.85,0,0,0-.65-2,3.13,3.13,0,0,0-2.36-.8Zm1.54,4.08v.42a1.78,1.78,0,0,1-.68,1.41,2.42,2.42,0,0,1-1.61.57,1.4,1.4,0,0,1-.91-.28.81.81,0,0,1-.35-.69c0-.89.67-1.37,2-1.4Zm3.34-6.84V96.73h1.48V86.55h-1.48Zm10.85.2a1.87,1.87,0,0,0-1.46.53,2,2,0,0,0-.51,1.44v.78h-1.66v1.22h1.66v6h1.48v-6H201V89.5h-1.9v-.74a.81.81,0,0,1,.16-.57.71.71,0,0,1,.54-.18h1.3V86.74h-1.51Zm5.75,2.56a3.37,3.37,0,0,0-2.63,1.09,4.28,4.28,0,0,0,0,5.43,3.73,3.73,0,0,0,5.27,0l0,0a3.86,3.86,0,0,0,1-2.7,3.9,3.9,0,0,0-1-2.73,3.38,3.38,0,0,0-2.63-1.09Zm0,1.22a1.86,1.86,0,0,1,1.61.81,3.43,3.43,0,0,1,0,3.57,1.89,1.89,0,0,1-1.61.81,1.86,1.86,0,0,1-1.6-.81,3,3,0,0,1-.49-1.78,3,3,0,0,1,.49-1.79,1.83,1.83,0,0,1,1.6-.81Zm8.38-1.22a1.76,1.76,0,0,0-1.17.41,2.13,2.13,0,0,0-.7.88V89.5h-1.49v7.23h1.49V92.9a2.12,2.12,0,0,1,.56-1.54,1.63,1.63,0,0,1,1.2-.55,3.5,3.5,0,0,1,1.05.15V89.48a2.1,2.1,0,0,0-.94-.18Zm8.71-2.14-1.48.61V89.5h-1.35v1.23h1.35v4.2a1.87,1.87,0,0,0,.4,1.32,1.74,1.74,0,0,0,1.36.49h1.19V95.5h-.95a.52.52,0,0,1-.39-.14.61.61,0,0,1-.13-.43v-4.2h1.65V89.5h-1.65Zm2.84-.62V96.73h1.49V92.67a2.43,2.43,0,0,1,.47-1.55,1.46,1.46,0,0,1,1.22-.6,1.56,1.56,0,0,1,1.28.52,2.39,2.39,0,0,1,.39,1.45v4.24h1.48v-4.5a3.26,3.26,0,0,0-.63-2.17,2.46,2.46,0,0,0-2-.77,2.52,2.52,0,0,0-1.23.28,2.43,2.43,0,0,0-1,.94v-4h-1.49Zm11.08,2.76a3.14,3.14,0,0,0-2.54,1.11,4.38,4.38,0,0,0,.06,5.52,3.32,3.32,0,0,0,2.53,1,3.54,3.54,0,0,0,2.4-.83,3.29,3.29,0,0,0,1-1.69h-1.48a2.59,2.59,0,0,1-.66.94,2.06,2.06,0,0,1-1.26.36,1.81,1.81,0,0,1-1.39-.56,2.77,2.77,0,0,1-.57-1.62h5.49a5,5,0,0,0-.87-3,3.2,3.2,0,0,0-2.7-1.21Zm0,1.22a1.83,1.83,0,0,1,2,1.68,1.86,1.86,0,0,1,0,.21h-3.9A2.4,2.4,0,0,1,235,91a1.78,1.78,0,0,1,1.33-.49ZM246,86.74v10h1.53V92.26h5.23v4.48h1.53v-10h-1.53V91h-5.23V86.74Zm11.16-.14a1,1,0,0,0-.73.28.91.91,0,0,0-.29.71,1,1,0,0,0,.29.73,1,1,0,0,0,.73.28,1.06,1.06,0,0,0,.73-.28,1,1,0,0,0,.3-.73.91.91,0,0,0-.29-.71,1,1,0,0,0-.74-.28Zm-.74,2.9v7.23h1.48V89.5Zm7.15-.2a2.54,2.54,0,0,0-1.22.28,2.79,2.79,0,0,0-1,.81v-.9h-1.49v7.23h1.49V92.38a2.13,2.13,0,0,1,.6-1.38,1.5,1.5,0,0,1,1.1-.45,1.58,1.58,0,0,1,1.7,1.85v4.34h1.48V92.27c0-2-.91-3-2.7-3Zm7.41,0a3,3,0,0,0-2.39,1,3.74,3.74,0,0,0-.91,2.63,3.68,3.68,0,0,0,.91,2.62,3.12,3.12,0,0,0,2.39,1,2.51,2.51,0,0,0,2.21-1.2v1.12a1.74,1.74,0,0,1-1.89,2,2.5,2.5,0,0,1-1.29-.27,1.31,1.31,0,0,1-.53-.91h-1.49a2.66,2.66,0,0,0,1,1.78,4,4,0,0,0,2.31.57c2.24,0,3.37-1.15,3.37-3.44V89.5h-1.48v1a2.5,2.5,0,0,0-2.21-1.17Zm.22,1.2a1.78,1.78,0,0,1,1.48.66,2.84,2.84,0,0,1,.52,1.79,2.78,2.78,0,0,1-.52,1.76,1.84,1.84,0,0,1-1.48.63,1.76,1.76,0,0,1-1.57-.73,2.9,2.9,0,0,1-.42-1.66,2.68,2.68,0,0,1,.53-1.79,1.72,1.72,0,0,1,1.46-.66Zm16.31-3.76-4.83,4.83V86.74h-1.53v10h1.53V93.27l1.3-1.24,4.06,4.7h2.05L285,91l4.42-4.29h-1.93Zm6.48,2.56a3.12,3.12,0,0,0-2.53,1.11,4.37,4.37,0,0,0,.05,5.52,3.33,3.33,0,0,0,2.54,1,3.53,3.53,0,0,0,2.39-.83,3.24,3.24,0,0,0,1-1.69h-1.49a2.59,2.59,0,0,1-.66.94,2.06,2.06,0,0,1-1.26.36,1.78,1.78,0,0,1-1.38-.56,2.71,2.71,0,0,1-.58-1.62h5.49a4.91,4.91,0,0,0-.87-3,3.17,3.17,0,0,0-2.7-1.2Zm0,1.22a1.84,1.84,0,0,1,2,1.69,1.87,1.87,0,0,1,0,.2h-3.91a2.4,2.4,0,0,1,.6-1.4,1.78,1.78,0,0,1,1.33-.49Zm5.84-3.92a1,1,0,0,0-.73.28,1,1,0,0,0-.29.71,1,1,0,0,0,.29.73,1,1,0,0,0,.73.28,1.06,1.06,0,0,0,.73-.28,1,1,0,0,0,.31-.73.92.92,0,0,0-.3-.71,1,1,0,0,0-.74-.28Zm-.74,2.9v7.23h1.48V89.5Zm8.29-2.76v10h1.52V89.6H309L312,96.73h1.32l3.07-7.13h.05v7.13H318v-10h-1.81l-3.47,8h0l-3.49-8Zm15.49,2.56a3.13,3.13,0,0,0-2.53,1.11,3.92,3.92,0,0,0-.95,2.7,3.86,3.86,0,0,0,1,2.83,3.31,3.31,0,0,0,2.53,1,3.51,3.51,0,0,0,2.39-.83,3.24,3.24,0,0,0,1-1.69h-1.49a2.47,2.47,0,0,1-.65.94,2.1,2.1,0,0,1-1.26.36,1.81,1.81,0,0,1-1.39-.56,2.65,2.65,0,0,1-.57-1.62h5.48a4.91,4.91,0,0,0-.86-3,3.2,3.2,0,0,0-2.71-1.21Zm.05,1.22a1.83,1.83,0,0,1,2,1.89H321a2.47,2.47,0,0,1,.61-1.4,1.77,1.77,0,0,1,1.33-.49Zm7-3.36-1.48.61V89.5h-1.35v1.23h1.35v4.2a1.87,1.87,0,0,0,.4,1.32,1.74,1.74,0,0,0,1.36.49h1.19V95.51h-.95a.52.52,0,0,1-.39-.14.61.61,0,0,1-.13-.43v-4.2h1.65V89.5H329.9ZM336,89.31a4,4,0,0,0-2.16.49,2.44,2.44,0,0,0-1.16,1.73l1.47.13a1.26,1.26,0,0,1,.63-.89,2.18,2.18,0,0,1,1.12-.25A1.4,1.4,0,0,1,337.55,92v.29l-1.63,0a4.48,4.48,0,0,0-2.49.66,2.14,2.14,0,0,0-1,1.87,1.81,1.81,0,0,0,.69,1.47,2.55,2.55,0,0,0,1.76.57,3.87,3.87,0,0,0,1.68-.35,3,3,0,0,0,1.05-.87v1H339V92.12a2.86,2.86,0,0,0-.66-2,3.12,3.12,0,0,0-2.35-.8Zm1.54,4.08v.42a1.79,1.79,0,0,1-.69,1.41,2.42,2.42,0,0,1-1.61.57,1.4,1.4,0,0,1-.91-.28.81.81,0,0,1-.35-.69c0-.89.67-1.37,2-1.4Zm3.33-6.84V96.73h1.48V86.55h-1.48Zm12.46,0a4.36,4.36,0,0,0-3.52,1.54,5.5,5.5,0,0,0-1.23,3.69,5.33,5.33,0,0,0,1.23,3.64,4.67,4.67,0,0,0,3.71,1.51,8.15,8.15,0,0,0,2.4-.34,5.79,5.79,0,0,0,1.8-.94v-4.2h-4.28v1.3h2.76v2.17a4.11,4.11,0,0,1-1.12.49,5.59,5.59,0,0,1-1.39.18,3.43,3.43,0,0,1-2.76-1,4.09,4.09,0,0,1-.82-2.77,4.21,4.21,0,0,1,.91-2.9,2.86,2.86,0,0,1,2.31-1,3.14,3.14,0,0,1,1.9.52,2.33,2.33,0,0,1,.93,1.51h1.54a3.8,3.8,0,0,0-1.35-2.5,4.73,4.73,0,0,0-3-.87Zm9.45,2.76a1.78,1.78,0,0,0-1.18.41,2.13,2.13,0,0,0-.7.88V89.5h-1.48v7.23h1.48V92.9a2.12,2.12,0,0,1,.56-1.54,1.64,1.64,0,0,1,1.2-.55,3.61,3.61,0,0,1,1.06.15V89.48a2.16,2.16,0,0,0-.94-.18Zm5.18,0a3.39,3.39,0,0,0-2.64,1.09,4.26,4.26,0,0,0,0,5.43,3.72,3.72,0,0,0,5.26,0l0,0a3.82,3.82,0,0,0,1-2.7,3.94,3.94,0,0,0-1-2.73A3.38,3.38,0,0,0,368,89.3Zm0,1.22a1.88,1.88,0,0,1,1.61.81,3.43,3.43,0,0,1,0,3.57,1.92,1.92,0,0,1-1.61.81,1.86,1.86,0,0,1-1.6-.81,2.9,2.9,0,0,1-.49-1.78,3,3,0,0,1,.49-1.79,1.83,1.83,0,0,1,1.6-.81Zm5-1V94c0,1.94.87,2.92,2.62,2.92a2.79,2.79,0,0,0,2.28-1.17v1h1.49V89.5h-1.49v4.42a2.49,2.49,0,0,1-.7,1.29,1.55,1.55,0,0,1-1.08.48,1.6,1.6,0,0,1-1.24-.43,1.88,1.88,0,0,1-.39-1.34V89.5H373Zm11.71-.2a2.57,2.57,0,0,0-2.24,1.06V89.5h-1.39v10h1.48V95.67a2.62,2.62,0,0,0,2.22,1.26,3,3,0,0,0,2.45-1.13,4.74,4.74,0,0,0,0-5.36,3,3,0,0,0-2.5-1.13Zm-.23,1.2a1.78,1.78,0,0,1,1.61.78,3.48,3.48,0,0,1,.44,1.86A3.21,3.21,0,0,1,386,95a1.86,1.86,0,0,1-1.61.71,1.6,1.6,0,0,1-1.34-.66,2.82,2.82,0,0,1-.58-1.87v-.13a3.18,3.18,0,0,1,.46-1.79,1.71,1.71,0,0,1,1.5-.77Z"/><path id="企业信息门户" class="cls-3" d="M197.8,69.76V66.35H184.3V58.2h10.09V54.64H184.3V47.37h-4v19h-6.82V52.71h-4.16V66.35h-5v3.41Zm1.48-21.5q-10.53-4.15-15.57-11a2.36,2.36,0,0,1,.45-.59,1.49,1.49,0,0,1,.29-.59l-4.74-.3q-4.45,7.42-16.62,13.2a9,9,0,0,1,1.19,1.78,14.32,14.32,0,0,1,1.19,1.78q10.68-5.48,16-12.31,5,6.82,15.42,11.72,1-1.78,2.37-3.71h0Zm37.53,21.2v-3.7H226V36.4h-4V65.76h-5.64V36.4h-4.15V65.76H201.51v3.7Zm-.59-25.2-3.71-1.33q-3.85,10.23-6.08,15l3.71,1.63q2.52-6.08,6.08-15.27h0ZM211.45,58.2q-1.78-5.34-5.64-15.27l-3.56,1.19q2.67,7.12,5.49,15.42Zm43.75,13V69.32h13.95v1.93h3.7v-13H251.49v13h3.71Zm-8.3,0V45.15a62.74,62.74,0,0,0,3-8.16L246,36a61.78,61.78,0,0,1-7,16.46q.44,2.67.89,5a45,45,0,0,0,3.26-5V71.25h3.71Zm28-27.58V40.11H264.84L263.36,36l-4.3.45,1.33,3.71H249.71v3.55h25.22ZM273,49.45V46.34H251.35v3.11Zm0,5.93V52.26H251.35v3.11H273Zm-3.85,6.08v4.89H255.2V61.46h13.95Zm39.6-3V39.07h-13.8a30.25,30.25,0,0,0,1.19-3l-4.3-.3c-.3,1-.59,2.08-.89,3.26h-9.64V58.49h27.44Zm-9.64,12.16q4.74.15,5.63-3.26a27.82,27.82,0,0,0,.89-3.71,25.32,25.32,0,0,1-3.56-1.19,8.62,8.62,0,0,0-.29,1.48q-.3,1.33-.45,1.78C301,67,300,67.49,298.22,67.4h-5.94c-2,.1-2.91-.64-2.81-2.22V60.43h-3.86v5.64q-.15,4.74,4.75,4.6h8.75Zm5.78-23.28v2.82H285.16V47.38Zm0-5.34v2.67H285.16V42Zm0,10.68v2.82H285.16V52.72Zm-21.06,8.75-3.56-1.19A50.12,50.12,0,0,1,277,67.69l3.26,1.48a59.66,59.66,0,0,0,3.56-7.71Zm29.52,4.89q-2.38-3.26-4.9-6.52l-3.11,1.78c1.18,1.48,2.52,3.31,4,5.49a5.86,5.86,0,0,0,.74,1Zm-14.09-3.11c-.3-.3-.75-.79-1.34-1.48q-1.63-1.93-2.52-2.82l-3,1.78c1.29,1.58,2.47,3.11,3.56,4.6Zm44.2,7.56q5.77,0,5.48-5.49v-27H328.62v3.86h16.17v22.1q.15,2.82-3.11,2.82c-1.69,0-3.66,0-5.94-.15a12.4,12.4,0,0,1,.89,4Zm-22,.45V44.55h-4.15V71.25h4.15Zm4.9-30.1a65,65,0,0,0-4.75-5.34l-3.41,1.93c1.48,1.78,3,3.71,4.45,5.78ZM361,56.87h21.51v1.78h4.15V41H374.75q-1.19-2.67-2.07-5.19l-4.45.74c.19.5.54,1.24,1,2.22s.7,1.73.89,2.23H356.81V52.26q.44,11.12-3.86,16.16,1.48,1.48,3.26,3A24.12,24.12,0,0,0,361,56.86h0Zm0-12h21.51V53H361Z"/></g></g></svg>