<svg xmlns="http://www.w3.org/2000/svg" xmlns:xlink="http://www.w3.org/1999/xlink" width="358" height="96" viewBox="0 0 358 96">
  <metadata><?xpacket begin="﻿" id="W5M0MpCehiHzreSzNTczkc9d"?>
<x:xmpmeta xmlns:x="adobe:ns:meta/" x:xmptk="Adobe XMP Core 5.6-c138 79.159824, 2016/09/14-01:09:01        ">
   <rdf:RDF xmlns:rdf="http://www.w3.org/1999/02/22-rdf-syntax-ns#">
      <rdf:Description rdf:about=""/>
   </rdf:RDF>
</x:xmpmeta>
                                                                                                    
                                                                                                    
                                                                                                    
                                                                                                    
                                                                                                    
                                                                                                    
                                                                                                    
                                                                                                    
                                                                                                    
                                                                                                    
                                                                                                    
                                                                                                    
                                                                                                    
                                                                                                    
                                                                                                    
                                                                                                    
                                                                                                    
                                                                                                    
                                                                                                    
                                                                                                    
                           
<?xpacket end="w"?></metadata>
<defs>
    <style>
      .cls-1 {
        fill: #fff;
        fill-rule: evenodd;
        filter: url(#filter);
      }
    </style>
    <filter id="filter" x="401" y="525" width="358" height="96" filterUnits="userSpaceOnUse">
      <feOffset result="offset" dx="-0.866" dy="0.5" in="SourceAlpha"/>
      <feGaussianBlur result="blur" stdDeviation="2"/>
      <feFlood result="flood" flood-color="#171717" flood-opacity="0.5"/>
      <feComposite result="composite" operator="in" in2="blur"/>
      <feBlend result="blend" in="SourceGraphic"/>
    </filter>
  </defs>
  <path id="做全球有色金属_分配流通的加速引擎" data-name="做全球有色金属 分配流通的加速引擎" class="cls-1" d="M518.953,557.375a27.654,27.654,0,0,1-5.337-5.062q2.666-5.062,3.511-15.188h1.685v-3.234h-7.865q0.981-2.811,1.826-5.766l-3.652-.562a43.427,43.427,0,0,1-4.916,13.64q0.7,1.409,1.545,3.375a6.292,6.292,0,0,1,.562-0.843,14.342,14.342,0,0,0,.843-1.407,27.022,27.022,0,0,0,2.668,9.844,25.347,25.347,0,0,1-6.18,6.047,4.229,4.229,0,0,1,.422.563,19.114,19.114,0,0,1,1.685,2.531,38.205,38.205,0,0,0,5.9-5.766,40.526,40.526,0,0,0,5.337,5.2,12.228,12.228,0,0,1,1.967-3.375h0ZM497.6,537.547v5.766h-3.652v15.469h3.231v-1.829h7.3v-13.64h-3.371v-5.766h4.214v-3.375h-4.214V527.7H497.6v6.469h-4.5v3.375h4.5Zm-6.18,23.485V535.438q1.264-3.375,2.388-7.172l-3.512-.7a70.328,70.328,0,0,1-5.758,15.187c0.092,0.471.281,1.266,0.562,2.391,0.186,1.033.327,1.828,0.421,2.391a6.58,6.58,0,0,1,.421-0.7,37.276,37.276,0,0,0,2.107-3.8v18h3.371Zm18.118-23.766,0.141-.141H513.9q-0.42,7.736-2.247,11.532-1.406-3.515-2.107-11.391h0Zm-8.146,9.141v7.453h-4.213v-7.453H501.4Zm56.687-6.61a1.482,1.482,0,0,1,.281-0.562,37.487,37.487,0,0,1-14.748-10.547l0.562-.985-4.354-.421q-4.776,7.033-15.731,12.515,1.265,1.83,2.107,3.235a32.194,32.194,0,0,0,5.056-2.813v3.094h8.006v4.5H528.728v3.515h10.534v4.922H525.638v3.375H557.1V556.25H543.335v-4.922h10.534v-3.515H543.335v-4.5h8.147v-3.235q2.106,1.266,4.775,2.672,0.56-.843,1.826-2.953h0Zm-7.023,0H531.818a41.06,41.06,0,0,0,9.691-8.437,34.707,34.707,0,0,0,9.551,8.437h0Zm46.012,16.172q0.7-1.266.984-1.687a29.215,29.215,0,0,1-6.461-7.313q2.106-1.826,5.9-5.766l-2.809-2.25q-2.107,2.532-4.495,5.2a23.166,23.166,0,0,1-1.966-5.625,5.834,5.834,0,0,0-.281-0.7v-0.843h9.551V533.75H593.28l2.388-1.968q-0.705-.561-2.388-2.11a16.442,16.442,0,0,0-1.545-1.406l-2.387,1.687c0.467,0.471,1.169,1.125,2.106,1.969q1.265,1.266,1.826,1.828h-5.337V527.7h-3.511v6.047h-8.287v3.235h8.287v9.281q-3.232,2.109-8.989,5.484l1.545,3.516q1.263-.982,3.932-2.813,2.386-1.545,3.512-2.39v4.922c0.092,1.6-.7,2.342-2.388,2.25H580.5c-0.843-.1-1.453-0.141-1.826-0.141a29.169,29.169,0,0,1,.7,3.516q2.387,0,3.933-.141,4.916,0,4.635-4.5v-9.844a29.9,29.9,0,0,0,8.146,11.391c0.187-.281.514-0.795,0.983-1.547h0Zm-28.933-22.078v7.875h-3.652v3.375h3.652v9.141l-4.354.562,0.562,3.656a111.858,111.858,0,0,1,11.1-1.687v-3.656a30.373,30.373,0,0,1-3.512.562h-0.28v-8.578h3.23v-3.375h-3.23v-7.875H575.3v-3.375h-11.1v3.375h3.932ZM582.746,545q-1.827-3.091-3.792-6.047l-2.949,1.547q1.965,2.954,3.792,6.188Zm30.141-10.125a38.574,38.574,0,0,1-9.55,11.11,1.421,1.421,0,0,0,.281.562q0.981,2.251,1.4,3.235a54.187,54.187,0,0,0,4.775-4.5v15.75h3.793V553.86h16.152v1.265q0.279,2.532-2.528,2.25h-4.776a10.14,10.14,0,0,1,.281,1.125,19.419,19.419,0,0,1,.562,2.25q3.371,0,5.618-.14,5.057,0,4.775-4.36V538.11H615.416q0.42-.561,1.264-1.969a12.244,12.244,0,0,1,.7-1.266h19.8V531.5H619.067q0.281-.7.843-1.828,0.56-1.266.843-1.828l-4.214-.422q-0.284.705-.843,1.969a15.584,15.584,0,0,1-.983,2.109H604.32v3.375h8.567Zm16.855,12.657v3.234H613.59v-3.234h16.152Zm0-6.188v3.234H613.59v-3.234h16.152Zm16.657-1.125v14.344q-0.141,5.484,5.759,5.344h17.556q5.478,0.138,6.321-3.8a17.877,17.877,0,0,0,.843-4.641,2.231,2.231,0,0,1-.562-0.141q-1.969-.7-2.95-1.125a15.289,15.289,0,0,0-.281,1.688q-0.282,1.829-.421,2.391-0.141,2.53-3.652,2.39h-15.73q-3.372.143-3.09-2.812v-4.078h23.174V537.407H665.5l3.652-3.938v-3.094h-13.2l1.686-2.531-4.214-.422a37.453,37.453,0,0,1-10.393,10.688q1.965,1.971,2.528,2.672a2.216,2.216,0,0,1,.842-0.563h0Zm11.658,0.563v5.625h-7.865v-5.625h7.865Zm11.657,5.625h-8.005v-5.625h8.005v5.625Zm-8.988-9H649.77a43.471,43.471,0,0,0,3.512-3.657h10.955Zm54.86,1.968q0.7-1.264.983-1.828a28.993,28.993,0,0,1-14.607-8.859l0.843-1.125-4.354-.422q-4.355,6.47-16.012,10.969,0.422,0.705,1.405,2.25c0.281,0.47.514,0.843,0.7,1.125q2.386-1.125,4.354-2.11v2.391h8.708v3.8H685.67v3.375h11.938v7.875H683.563v3.094h32.023v-3.094H701.541v-7.875H713.48v-3.375H701.541v-3.8h8.427v-2.672q2.108,0.985,4.635,2.109c0.187-.373.514-0.984,0.983-1.828h0Zm-6.882-.843H690.726a36.518,36.518,0,0,0,9.13-7.172,33.377,33.377,0,0,0,8.848,7.172h0Zm3.231,12.656-3.09-1.688q-1.265,1.55-4.074,4.641a1.631,1.631,0,0,1-.28.422l2.809,1.828q2.808-3.091,4.635-5.2h0Zm-17.557,3.375c-0.47-.563-0.61-0.749-0.421-0.563q-2.391-2.811-3.933-4.5l-2.809,1.828q3.087,3.659,4.213,5.063Zm46.855,3.375q4.214-.283,6.461-0.422l0.14,0.7a0.812,0.812,0,0,0-.562-0.141q0.421,1.266.843,2.813c1.4,0,2.62-.048,3.652-0.141q3.37,0.139,3.23-3.656v-6.609H743.9v-1.828h9.269v-6.329H743.9V540.36q1.965,0,5.9-.141H754.3l-0.562-2.391q-10.675.423-23.455,0.422l0.421,2.391,9.972-.141v1.828h-9.129v6.329h9.129v1.828H730.137v10.687h3.231v-8.156h7.3v2.531c-0.656,0-1.685.049-3.09,0.141a22.977,22.977,0,0,0-2.949.14l0.421,2.391q2.107-.141,6.18-0.281h0Zm-13.062-5.063a54.881,54.881,0,0,0,.843-11.109v-5.344h25.562v-7.453H725.362v12.516a53.893,53.893,0,0,1-.7,10.125,20.632,20.632,0,0,1-2.81,6.89q1.545,1.266,2.95,2.672a28.687,28.687,0,0,0,3.371-8.3h0Zm22.753-21.234v2.391h-21.91v-2.391h21.91Zm0.7,25.312q0.14,1.406-1.4,1.266c-0.094-.281-0.235-0.751-0.421-1.406q-0.705-1.968-1.124-3.235L746.57,554l0.421,1.688q-1.546,0-3.089.14v-2.812h7.724v3.937Zm-1.685-10.406H743.9v-2.109h6.039v2.109Zm-9.27-2.109v2.109h-5.9v-2.109h5.9ZM419.484,602.5a15.819,15.819,0,0,0,.281-1.688,11.914,11.914,0,0,0,.141-1.547h9.831q0,3.659-.281,8.157-0.141,3.658-3.511,3.515-0.984,0-3.09-.14h-2.528a23.205,23.205,0,0,1,.7,3.515h5.478q6.6,0.138,6.742-6.187,0-1.687.281-5.766,0.138-4.641.28-6.609H411.2a39.9,39.9,0,0,0,9.41-12.375l-3.511-1.547a33.787,33.787,0,0,1-11.658,13.219,29.313,29.313,0,0,1,1.545,2.812,6.6,6.6,0,0,1,.562.844q1.685-1.266,3.09-2.531v3.093h5.337a13.016,13.016,0,0,1-.281,2.813q-0.843,6.891-9.41,9.984,0.981,1.266,2.387,3.235,10.251-4.361,10.815-12.8h0Zm20.366-7.735q-7.868-4.077-11.658-13.359l-3.37,1.406a31.364,31.364,0,0,0,12.781,15.75q1.685-2.67,2.247-3.8h0Zm10.618-8.578v4.219H446.4v24.469h2.95V612.91H459.6v1.969h3.089V590.41h-4.073v-4.219h4.635v-2.953h-17.7v2.953h4.916Zm26.967,12.094V583.379H464.794v3.234h9.27v8.3h-8.848v14.625q-0.143,4.641,4.775,4.5H473.5q4.773,0.138,5.338-3.938a11.346,11.346,0,0,1,.14-1.406q0.28-2.39.421-4.078a4.543,4.543,0,0,0-.842-0.281,20.422,20.422,0,0,1-2.388-.7,34.711,34.711,0,0,1-.562,5.062,2.337,2.337,0,0,1-2.809,2.25h-1.685q-2.67.142-2.528-2.39V598.285h8.848ZM459.6,601.238v2.953H449.345v-2.812q0.42,0.283,1.544.984a0.4,0.4,0,0,0,.281.281q2.667-3.375,2.388-9.281v-0.141h1.966v5.063q0,2.954,2.809,2.953H459.6Zm0,5.625v3.516H449.345v-3.516H459.6Zm-8.287-13.641V593.5q0.138,5.2-2.247,7.734v-8.016h2.247Zm8.708,5.766h-0.843q-1.685.142-1.545-1.687v-4.079h2.388v5.766Zm-4.5-12.8v4.219h-1.966v-4.219h1.966Zm45.591,2.531a30.227,30.227,0,0,1-4.494,4.641,1585.515,1585.515,0,0,0-2.528,1.688l1.4,3.093h0.281a24.555,24.555,0,0,1,3.371-.281q1.264,0,3.792-.141,6.321-.279,10.113-0.281l1.685,2.11,3.231-1.969q-2.529-3.092-7.163-7.875L508,591.394l2.669,3.094-11.1.281a63.191,63.191,0,0,0,6.321-6.047h11.8v-3.234h-9.27a13.839,13.839,0,0,0-.7-2.109q-0.564-1.4-.843-1.969l-4.214.562q0.28,0.564.7,1.688a13.514,13.514,0,0,1,.7,1.828H493.952v3.234h7.163Zm13.765,25.594q2.949,0.138,3.511-3.234a30.659,30.659,0,0,0,.562-4.781q-1.264-.423-2.669-0.844a37.646,37.646,0,0,1-.281,4.359V610.1a1.079,1.079,0,0,1-1.123,1.125h-0.7c-0.656.093-.983-0.232-0.983-0.984V599.551h-3.371v11.39q-0.141,3.513,3.512,3.375h1.545Zm-15.31-9.281q0.14-2.389.141-5.344H496.2v5.063a10.044,10.044,0,0,1-4.494,8.3,16.368,16.368,0,0,1,2.809,2.25,12.931,12.931,0,0,0,5.056-10.266h0Zm7.023,9.281V599.691h-3.652v14.625h3.652ZM492.548,602.5q-1.969-.7-3.652-1.266-1.686,6.75-3.652,12.516l3.792,0.984q0.843-3.659,3.512-12.234h0Zm0.842-16.172q-1.827-1.546-4.775-3.8a3.088,3.088,0,0,0-.7-0.563l-2.388,2.532q0.7,0.563,1.966,1.687,2.245,1.971,3.371,3.094Zm-0.842,9.281q-2.67-2.247-5.478-4.359l-2.388,2.672q2.667,2.109,5.338,4.64Zm60.057,13.781q4.072,0,3.933-4.218V590.551h-8.287l7.866-4.36V583.1h-21.49v2.813H539.4l-1.967,1.687c0.187,0.1.514,0.282,0.984,0.563a45.8,45.8,0,0,1,4.354,2.391h-7.725v18.843h3.511v-5.2h5.478v4.781h3.37v-4.781h5.619v0.563q0.138,2.25-1.826,2.109a26.45,26.45,0,0,1-2.669-.141,20.667,20.667,0,0,1,.7,2.813,29.289,29.289,0,0,0,3.371-.141h0Zm-26.4,4.922a33.865,33.865,0,0,1,3.933-4.078q2.665,3.655,8.287,3.8,2.666,0.138,7.163.141h11.8q0.422-1.409,1.123-3.235-5.478.142-19.1,0.141-5.34,0-7.725-3.938V593.363h-7.163v3.516h3.651v10.547a8.349,8.349,0,0,1-.842.7,34.249,34.249,0,0,0-3.09,2.953l1.685,3.515c0.092-.094.187-0.189,0.281-0.281h0Zm7.444-26.015q-0.843-1.266-3.23-4.079-1.126-1.545-1.686-2.25l-3.09,1.829,1.264,1.687q2.529,3.375,3.512,4.922Zm11.8,0.7a49.681,49.681,0,0,0-5.337-3.094H551.06Zm7.585,9.7v2.812h-5.619v-2.812h5.619Zm0-2.531h-5.619v-2.954h5.619v2.954Zm-8.989,2.531v2.812H538.56v-2.812h5.478Zm0-5.485v2.954H538.56v-2.954h5.478Zm24.8,21.375v-2.671h6.6v2.531h3.511V587.035h-6.039a42.65,42.65,0,0,0,1.4-4.922l-3.932-.562a8.557,8.557,0,0,0-.281,1.265q-0.705,2.673-1.124,4.219H565.19V614.6h3.652Zm21.348-.281q6.18,0.138,6.04-6.187,0.279-5.765.562-21.094H586.679a18.758,18.758,0,0,0,1.124-3.094,10.956,10.956,0,0,0,.561-1.547l-3.792-.843a59.321,59.321,0,0,1-5.056,12.375q1.686,0.843,2.388,1.265a6.175,6.175,0,0,0,.842.563q1.265-2.39,2.528-5.2H593q0,2.109-.14,7.312-0.141,7.314-.281,9.563,0,3.658-3.792,3.656-0.984,0-2.809-.141h-2.528a23.471,23.471,0,0,1,.7,3.516q3.23,0,6.039-.141h0Zm-14.747-12.937v7.312h-6.6v-7.312h6.6Zm0-10.828v7.312h-6.6v-7.312h6.6Zm14.888,12.375q-2.951-4.22-5.478-7.172l-2.949,1.828q2.808,3.8,5.2,7.453Zm36.04,11.39v-3.234h6.039v3.234h3.652V585.207h-13.2v29.109h3.511ZM611.9,591.957v-0.844h4.214q0,8.859-.281,17.016a2.229,2.229,0,0,1-2.669,2.531h-3.23a36.649,36.649,0,0,1,.7,3.656q2.951,0,4.214-.14,4.493,0,4.494-4.922,0.422-7.875.422-21.657h-7.725v-6.046h-3.652V587.6h-4.354v3.516h4.214v0.7q0,14.2-5.338,20.391,0.981,0.982,2.669,2.953,6.179-6.609,6.32-23.2h0Zm20.506-3.235v18.985h-6.039V588.722h6.039Zm30.282-.984v2.953h-8.568v9.7h7.444q-2.949,3.518-9.41,5.907a12.374,12.374,0,0,0,.983,1.546c0.468,0.752.8,1.266,0.983,1.547a27.4,27.4,0,0,0,8.568-6.047v6.61H666.2v-5.906q0.843,0.563,2.669,1.687,4.073,2.392,5.618,3.375l1.966-3.094q-5.057-2.811-8.708-4.64l-1.545,1.968v-2.953h8.568v-9.7H666.2v-2.953h10.113v-2.953H666.2V581.41h-3.511v3.375H652.86v2.953h9.832Zm-17.838,26.578a33.865,33.865,0,0,1,3.933-4.078q2.667,3.655,8.287,3.8,2.666,0.138,7.163.141h11.8q0.422-1.409,1.124-3.235-5.478.142-19.1,0.141-5.34,0-7.725-3.938V593.363h-7.163v3.516h3.652v10.547a8.5,8.5,0,0,1-.843.7,34.249,34.249,0,0,0-3.09,2.953l1.686,3.515c0.092-.094.186-0.189,0.28-0.281h0Zm7.023-26.3q-0.843-1.264-3.23-4.218-0.986-1.266-1.405-1.829l-2.949,1.829c0.281,0.375.654,0.892,1.123,1.546q2.245,3.237,3.231,4.641Zm19.523,9.563h-5.2v-3.938h5.2v3.938Zm-8.708-3.938v3.938h-5.2v-3.938h5.2Zm29.158,20.813h3.371q6.178,0.138,6.461-5.906a33.341,33.341,0,0,1,.28-3.375q0.139-3.655.281-5.485h-13.9l0.842-4.922h12.781V583.1H684.125v3.375h13.9v4.922H685.67l-1.545,11.672H698.17a11.88,11.88,0,0,1-.14,1.547q-0.143,2.251-.281,3.094-0.143,3.516-4.073,3.375h-6.321a12.908,12.908,0,0,1,.984,3.515q1.263,0,3.511-.14h0Zm21.63,0.562V581.691h-3.933v33.328h3.933ZM738,605.879v1.968H722.272v2.672H738v0.141q0.138,1.826-2.388,1.687h-1.826q-1.546-.141-2.528-0.14a2.3,2.3,0,0,0,.14.7,17.655,17.655,0,0,1,.562,1.969h5.618q4.213-.143,4.073-3.8v-0.563H755.84v-2.672H741.654v-1.968h11.1v-2.11h-11.1V601.8q1.824,0,5.618-.141,3.793,0,5.619-.141l-0.422-2.531q-5.339.284-11.517,0.281-5.34.143-16.433,0.141a3.757,3.757,0,0,0,.141.844,9.778,9.778,0,0,0,.28,1.687h6.321q4.493-.138,6.742-0.14v1.968H725.221v2.11H738Zm-10.534-20.25v1.125l-1.545-.141a11.943,11.943,0,0,1-3.933,5.063q0.981,0.985,1.966,1.968l0.843-.7v4.36h8.568l0.281,1.125h2.387q3.51,0.141,3.652-3.657,0-1.124.14-3.937v-2.813H728.311l0.562-1.125-0.7-.14h2.388v-1.125h3.511v1.265h3.23v-1.265h4.214v-2.25H737.3V581.41h-3.23v1.969h-3.511V581.41h-3.09v1.969h-4.354v2.25h4.354Zm16.152,4.359a14.432,14.432,0,0,0,2.387,3.656,23.463,23.463,0,0,1-5.477,2.25,1.593,1.593,0,0,1,.281.563q0.842,1.266,1.264,1.969a27.4,27.4,0,0,0,6.18-2.813,23.913,23.913,0,0,0,6.18,2.813,13.285,13.285,0,0,1,1.544-2.672,20.266,20.266,0,0,1-5.477-2.11,15.059,15.059,0,0,0,3.23-6.468h2.107v-2.532h-8.708c0.187-.373.421-0.843,0.7-1.406,0.281-.655.468-1.125,0.562-1.406l-3.23-.281a20.678,20.678,0,0,1-5.2,8.156l1.685,2.39q1.124-1.124,1.967-2.109h0Zm-6.742,0q0,3.094-.141,4.359,0.139,1.83-1.544,1.688h-0.843v-4.5h-8.287l0.421-.422a4.165,4.165,0,0,0,.7-1.125h9.691Zm8.708-2.672v-0.14h5.056a8.946,8.946,0,0,1-2.387,4.781,13.083,13.083,0,0,1-2.669-4.641h0Zm-13.764,5.906v2.25h-4.354v-2.25h4.354Z" transform="translate(-401 -525)"/>
</svg>
